<svg width="157.529931640625px" height="121.40498046875px" xmlns="http://www.w3.org/2000/svg" viewBox="171.2350341796875 14.297509765625001 157.529931640625 121.40498046875" style="background: rgba(0, 0, 0, 0);" preserveAspectRatio="xMidYMid"><defs><filter id="editing-hole" x="-100%" y="-100%" width="300%" height="300%"><feFlood flood-color="#000" result="black"></feFlood><feMorphology operator="dilate" radius="2" in="SourceGraphic" result="erode"></feMorphology><feGaussianBlur in="erode" stdDeviation="4" result="blur"></feGaussianBlur><feOffset in="blur" dx="2" dy="2" result="offset"></feOffset><feComposite operator="atop" in="offset" in2="black" result="merge"></feComposite><feComposite operator="in" in="merge" in2="SourceGraphic" result="inner-shadow"></feComposite></filter></defs><g filter="url(#editing-hole)"><g transform="translate(198.385000705719, 97.39999961853027)"><path d="M2.69-39.68L2.69-39.68L2.69-39.68Q3.58-41.47 5.54-42.46L5.54-42.46L5.54-42.46Q7.49-43.46 10.18-43.46L10.18-43.46L10.18-43.46Q14.40-43.46 16.93-40.42L16.93-40.42L16.93-40.42Q19.46-37.38 19.46-30.72L19.46-30.72L19.46-7.87L34.11-42.18L41.66-42.18L43.39-9.79L43.20-7.94L58.43-42.18L67.20-42.18L46.72 0L33.09 0L31.81-19.46L23.36 0L7.94 0L6.02-30.72L6.02-30.72Q5.82-34.18 4.90-36.45L4.90-36.45L4.90-36.45Q3.97-38.72 2.69-39.68ZM89.09-29.57L89.09-29.57L89.09-29.57Q90.05-31.49 90.05-33.28L90.05-33.28L90.05-33.28Q90.05-35.07 89.86-36.06L89.86-36.06L89.86-36.06Q89.66-37.06 89.22-37.82L89.22-37.82L89.22-37.82Q88.26-39.49 86.34-39.49L86.34-39.49L86.34-39.49Q83.97-39.49 82.05-37.76L82.05-37.76L82.05-37.76Q80-35.97 80-33.15L80-33.15L80-33.15Q80-31.36 81.25-29.98L81.25-29.98L81.25-29.98Q82.50-28.61 84.42-27.33L84.42-27.33L84.42-27.33Q86.34-26.05 88.51-24.77L88.51-24.77L88.51-24.77Q90.69-23.49 92.61-21.95L92.61-21.95L92.61-21.95Q97.02-18.43 97.02-13.70L97.02-13.70L97.02-13.70Q97.02-10.50 95.33-7.78L95.33-7.78L95.33-7.78Q93.63-5.06 90.82-3.07L90.82-3.07L90.82-3.07Q84.67 1.28 76.54 1.28L76.54 1.28L76.54 1.28Q69.95 1.28 66.56-0.86L66.56-0.86L66.56-0.86Q63.17-3.01 63.17-6.27L63.17-6.27L63.17-6.27Q63.17-12.10 67.71-13.57L67.71-13.57L67.71-13.57Q68.99-14.02 70.94-14.02L70.94-14.02L70.94-14.02Q72.90-14.02 75.14-13.18L75.14-13.18L75.14-13.18Q74.11-10.56 74.11-8.19L74.11-8.19L74.11-8.19Q74.11-3.07 77.76-3.07L77.76-3.07L77.76-3.07Q80.13-3.07 82.08-4.80L82.08-4.80L82.08-4.80Q84.03-6.53 84.03-8.48L84.03-8.48L84.03-8.48Q84.03-10.43 82.78-11.84L82.78-11.84L82.78-11.84Q81.54-13.25 79.68-14.37L79.68-14.37L79.68-14.37Q77.82-15.49 75.68-16.58L75.68-16.58L75.68-16.58Q73.54-17.66 71.68-19.20L71.68-19.20L71.68-19.20Q67.33-22.72 67.33-28.35L67.33-28.35L67.33-28.35Q67.33-32 69.12-34.85L69.12-34.85L69.12-34.85Q70.91-37.70 73.79-39.62L73.79-39.62L73.79-39.62Q79.55-43.52 86.62-43.52L86.62-43.52L86.62-43.52Q93.70-43.52 97.12-41.41L97.12-41.41L97.12-41.41Q100.54-39.30 100.54-35.71L100.54-35.71L100.54-35.71Q100.54-32.58 98.11-30.59L98.11-30.59L98.11-30.59Q96-28.93 93.44-28.93L93.44-28.93L93.44-28.93Q90.88-28.93 89.09-29.57Z" fill="#ccc"></path></g></g><style>text {
  font-size: 64px;
  font-family: Arial Black;
  dominant-baseline: central;
  text-anchor: middle;
}</style></svg>